<svg width="306" height="217" viewBox="0 0 306 217" fill="none" xmlns="http://www.w3.org/2000/svg">
<rect width="306" height="217" fill="white"/>
<path d="M57.867 79.65C52.359 78.111 45.798 89.289 43.368 93.258C44.421 90.504 45.555 86.211 45.636 83.538C45.798 79.569 45.069 79.974 42.72 80.217C42.072 80.298 38.751 80.865 38.751 80.865C40.695 81.27 39.804 87.426 38.265 90.99C37.86 91.962 37.05 93.825 36.645 94.635C36.078 95.769 37.617 95.283 38.508 93.906C37.05 101.277 23.28 127.602 21.255 129.546C22.389 129.384 23.604 129.87 24.657 129.951C27.33 130.113 28.464 129.222 30.084 125.739L37.779 106.542C43.53 109.944 50.658 107.19 55.113 101.844C61.026 94.716 65.562 81.756 57.867 79.65ZM55.68 92.286C51.306 100.305 42.396 109.296 38.427 105.327C42.234 98.199 46.203 91.152 49.281 86.94C56.166 77.301 61.026 82.323 55.68 92.286ZM89.6139 57.699C88.3989 57.861 87.0219 57.294 86.0499 57.294C82.6479 57.294 80.9469 59.481 79.1649 62.964C74.7099 71.307 68.3919 84.429 62.5599 97.551C61.5069 97.389 60.4539 97.794 59.6439 98.442C58.1049 99.576 57.3759 103.059 59.0769 105.651C54.2979 116.91 50.5719 126.711 50.7339 131.976C50.8149 135.216 52.6779 136.107 54.9459 136.188C63.6939 136.593 69.8499 119.421 68.8779 108.081C74.6289 108.081 79.0839 99.576 82.0809 92.772C82.6479 91.557 81.4329 91.152 80.8659 92.205C78.1929 97.875 73.5759 106.866 68.7159 106.542L68.4729 105.489C67.9059 102.654 66.9339 100.71 65.8809 99.414C73.9809 81.189 84.5109 62.478 89.6139 57.699ZM67.1769 108.405C67.3389 115.614 64.4229 125.577 60.4539 130.761C57.2949 134.973 53.5689 136.512 55.7559 127.116C57.0519 121.77 59.6439 114.237 62.4789 107.109C63.5319 108 65.5569 108.567 67.1769 108.405ZM67.0149 106.866H66.5289C65.0709 106.866 63.7749 106.218 63.2889 105.327L65.0709 101.277C65.4759 101.763 65.9619 102.492 66.2859 103.221C66.6909 104.274 66.9339 105.489 67.0149 106.866Z" fill="#FF69B4"/>
<path d="M101.759 119V96.99H110.873C111.824 96.99 112.692 97.1967 113.477 97.61C114.283 98.0027 114.975 98.5297 115.554 99.191C116.133 99.8317 116.587 100.565 116.918 101.392C117.249 102.219 117.414 103.056 117.414 103.903C117.414 104.812 117.259 105.691 116.949 106.538C116.639 107.365 116.205 108.098 115.647 108.739C115.089 109.38 114.417 109.896 113.632 110.289C112.867 110.682 112.01 110.878 111.059 110.878H103.929V119H101.759ZM103.929 108.956H110.966C111.607 108.956 112.185 108.822 112.702 108.553C113.239 108.264 113.694 107.892 114.066 107.437C114.438 106.962 114.727 106.424 114.934 105.825C115.141 105.205 115.244 104.564 115.244 103.903C115.244 103.221 115.12 102.58 114.872 101.981C114.645 101.361 114.324 100.824 113.911 100.369C113.518 99.9143 113.043 99.563 112.485 99.315C111.948 99.0463 111.379 98.912 110.78 98.912H103.929V108.956ZM129.971 117.202C131.356 117.202 132.503 116.944 133.412 116.427C134.342 115.89 135.076 115.197 135.613 114.35C136.171 113.482 136.554 112.5 136.76 111.405C136.988 110.31 137.101 109.204 137.101 108.088V96.99H139.271V108.088C139.271 109.576 139.106 110.992 138.775 112.335C138.445 113.658 137.907 114.825 137.163 115.838C136.44 116.851 135.489 117.657 134.311 118.256C133.133 118.855 131.697 119.155 130.002 119.155C128.266 119.155 126.799 118.845 125.6 118.225C124.422 117.584 123.472 116.747 122.748 115.714C122.025 114.681 121.508 113.503 121.198 112.18C120.888 110.857 120.733 109.493 120.733 108.088V96.99H122.872V108.088C122.872 109.245 122.986 110.372 123.213 111.467C123.441 112.562 123.823 113.534 124.36 114.381C124.918 115.228 125.652 115.91 126.561 116.427C127.471 116.944 128.607 117.202 129.971 117.202ZM144.445 119V96.99H153.745C154.695 96.99 155.563 97.1967 156.349 97.61C157.155 98.0027 157.847 98.5297 158.426 99.191C159.004 99.8317 159.449 100.565 159.759 101.392C160.089 102.219 160.255 103.056 160.255 103.903C160.255 104.709 160.131 105.484 159.883 106.228C159.655 106.951 159.325 107.613 158.891 108.212C158.477 108.791 157.971 109.287 157.372 109.7C156.772 110.093 156.101 110.361 155.357 110.506L160.751 119H158.302L153.125 110.878H146.615V119H144.445ZM146.615 108.956H153.807C154.447 108.956 155.026 108.822 155.543 108.553C156.08 108.264 156.535 107.881 156.907 107.406C157.279 106.931 157.568 106.393 157.775 105.794C157.981 105.195 158.085 104.564 158.085 103.903C158.085 103.242 157.961 102.611 157.713 102.012C157.485 101.392 157.165 100.855 156.752 100.4C156.359 99.9453 155.884 99.5837 155.326 99.315C154.788 99.0463 154.22 98.912 153.621 98.912H146.615V108.956ZM188.402 119V96.99H202.848V98.912H190.572V107.003H200.926V108.801H190.572V119H188.402ZM206.656 119V96.99H208.826V119H206.656ZM229.97 98.912H222.127V119H219.957V98.912H212.114V96.99H229.97V98.912Z" fill="#555555"/>
<rect x="165" y="97" width="14" height="2" fill="#555555"/>
<rect x="165" y="107" width="14" height="2" fill="#555555"/>
<rect x="165" y="117" width="14" height="2" fill="#555555"/>
<path d="M105.226 135.318V136H99.979V128.19H105.127V128.872H100.749V131.688H104.566V132.337H100.749V135.318H105.226ZM108.367 136.11C107.919 136.11 107.483 136.037 107.058 135.89C106.632 135.743 106.266 135.531 105.958 135.252L106.299 134.746C106.621 135.01 106.948 135.208 107.278 135.34C107.615 135.472 107.974 135.538 108.356 135.538C108.818 135.538 109.184 135.446 109.456 135.263C109.734 135.072 109.874 134.805 109.874 134.46C109.874 134.299 109.837 134.167 109.764 134.064C109.69 133.954 109.58 133.859 109.434 133.778C109.294 133.697 109.115 133.628 108.895 133.569C108.682 133.503 108.433 133.437 108.147 133.371C107.817 133.29 107.531 133.21 107.289 133.129C107.047 133.048 106.845 132.957 106.684 132.854C106.53 132.751 106.412 132.627 106.332 132.48C106.258 132.326 106.222 132.135 106.222 131.908C106.222 131.622 106.277 131.369 106.387 131.149C106.504 130.929 106.658 130.749 106.849 130.61C107.047 130.463 107.274 130.353 107.531 130.28C107.795 130.207 108.073 130.17 108.367 130.17C108.807 130.17 109.206 130.243 109.566 130.39C109.925 130.529 110.215 130.716 110.435 130.951L110.072 131.391C109.859 131.171 109.599 131.006 109.291 130.896C108.99 130.786 108.675 130.731 108.345 130.731C108.147 130.731 107.963 130.753 107.795 130.797C107.626 130.834 107.476 130.896 107.344 130.984C107.219 131.072 107.12 131.186 107.047 131.325C106.973 131.457 106.937 131.615 106.937 131.798C106.937 131.952 106.962 132.077 107.014 132.172C107.065 132.267 107.149 132.352 107.267 132.425C107.384 132.491 107.531 132.553 107.707 132.612C107.89 132.663 108.11 132.718 108.367 132.777C108.733 132.865 109.056 132.953 109.335 133.041C109.613 133.129 109.844 133.232 110.028 133.349C110.218 133.466 110.361 133.609 110.457 133.778C110.552 133.947 110.6 134.152 110.6 134.394C110.6 134.922 110.398 135.34 109.995 135.648C109.591 135.956 109.049 136.11 108.367 136.11ZM113.727 136.11C113.28 136.11 112.843 136.037 112.418 135.89C111.993 135.743 111.626 135.531 111.318 135.252L111.659 134.746C111.982 135.01 112.308 135.208 112.638 135.34C112.975 135.472 113.335 135.538 113.716 135.538C114.178 135.538 114.545 135.446 114.816 135.263C115.095 135.072 115.234 134.805 115.234 134.46C115.234 134.299 115.197 134.167 115.124 134.064C115.051 133.954 114.941 133.859 114.794 133.778C114.655 133.697 114.475 133.628 114.255 133.569C114.042 133.503 113.793 133.437 113.507 133.371C113.177 133.29 112.891 133.21 112.649 133.129C112.407 133.048 112.205 132.957 112.044 132.854C111.89 132.751 111.773 132.627 111.692 132.48C111.619 132.326 111.582 132.135 111.582 131.908C111.582 131.622 111.637 131.369 111.747 131.149C111.864 130.929 112.018 130.749 112.209 130.61C112.407 130.463 112.634 130.353 112.891 130.28C113.155 130.207 113.434 130.17 113.727 130.17C114.167 130.17 114.567 130.243 114.926 130.39C115.285 130.529 115.575 130.716 115.795 130.951L115.432 131.391C115.219 131.171 114.959 131.006 114.651 130.896C114.35 130.786 114.035 130.731 113.705 130.731C113.507 130.731 113.324 130.753 113.155 130.797C112.986 130.834 112.836 130.896 112.704 130.984C112.579 131.072 112.48 131.186 112.407 131.325C112.334 131.457 112.297 131.615 112.297 131.798C112.297 131.952 112.323 132.077 112.374 132.172C112.425 132.267 112.51 132.352 112.627 132.425C112.744 132.491 112.891 132.553 113.067 132.612C113.25 132.663 113.47 132.718 113.727 132.777C114.094 132.865 114.416 132.953 114.695 133.041C114.974 133.129 115.205 133.232 115.388 133.349C115.579 133.466 115.722 133.609 115.817 133.778C115.912 133.947 115.96 134.152 115.96 134.394C115.96 134.922 115.758 135.34 115.355 135.648C114.952 135.956 114.409 136.11 113.727 136.11ZM119.659 136.11C119.241 136.11 118.856 136.033 118.504 135.879C118.16 135.718 117.859 135.501 117.602 135.23C117.346 134.951 117.144 134.632 116.997 134.273C116.858 133.914 116.788 133.529 116.788 133.118C116.788 132.715 116.858 132.337 116.997 131.985C117.144 131.626 117.342 131.314 117.591 131.05C117.848 130.779 118.152 130.566 118.504 130.412C118.856 130.251 119.238 130.17 119.648 130.17C120.066 130.17 120.448 130.251 120.792 130.412C121.144 130.566 121.445 130.779 121.694 131.05C121.944 131.321 122.138 131.633 122.277 131.985C122.417 132.337 122.486 132.711 122.486 133.107C122.486 133.166 122.486 133.224 122.486 133.283C122.486 133.342 122.483 133.382 122.475 133.404H117.569C117.591 133.712 117.661 133.998 117.778 134.262C117.903 134.519 118.061 134.742 118.251 134.933C118.442 135.124 118.658 135.274 118.9 135.384C119.15 135.487 119.414 135.538 119.692 135.538C119.876 135.538 120.059 135.512 120.242 135.461C120.426 135.41 120.594 135.34 120.748 135.252C120.902 135.164 121.042 135.058 121.166 134.933C121.291 134.801 121.386 134.658 121.452 134.504L122.101 134.68C122.013 134.893 121.889 135.087 121.727 135.263C121.566 135.432 121.379 135.582 121.166 135.714C120.954 135.839 120.719 135.934 120.462 136C120.206 136.073 119.938 136.11 119.659 136.11ZM121.771 132.832C121.749 132.524 121.676 132.245 121.551 131.996C121.434 131.739 121.28 131.519 121.089 131.336C120.906 131.153 120.69 131.01 120.44 130.907C120.198 130.804 119.938 130.753 119.659 130.753C119.381 130.753 119.117 130.804 118.867 130.907C118.618 131.01 118.398 131.153 118.207 131.336C118.024 131.519 117.874 131.739 117.756 131.996C117.646 132.253 117.58 132.531 117.558 132.832H121.771ZM128.458 136H127.71V132.799C127.71 132.117 127.608 131.622 127.402 131.314C127.204 131.006 126.896 130.852 126.478 130.852C126.258 130.852 126.038 130.892 125.818 130.973C125.598 131.054 125.393 131.167 125.202 131.314C125.019 131.461 124.854 131.637 124.707 131.842C124.561 132.04 124.454 132.256 124.388 132.491V136H123.64V130.269H124.322V131.567C124.557 131.149 124.891 130.812 125.323 130.555C125.763 130.298 126.24 130.17 126.753 130.17C127.069 130.17 127.336 130.229 127.556 130.346C127.776 130.463 127.952 130.628 128.084 130.841C128.216 131.054 128.312 131.314 128.37 131.622C128.429 131.93 128.458 132.271 128.458 132.645V136ZM132.75 135.725C132.706 135.747 132.64 135.776 132.552 135.813C132.471 135.85 132.376 135.886 132.266 135.923C132.156 135.96 132.031 135.993 131.892 136.022C131.752 136.051 131.606 136.066 131.452 136.066C131.29 136.066 131.136 136.044 130.99 136C130.843 135.956 130.715 135.89 130.605 135.802C130.495 135.707 130.407 135.589 130.341 135.45C130.275 135.311 130.242 135.149 130.242 134.966V130.863H129.45V130.269H130.242V128.333H130.99V130.269H132.31V130.863H130.99V134.757C131.004 134.97 131.078 135.127 131.21 135.23C131.349 135.325 131.507 135.373 131.683 135.373C131.895 135.373 132.082 135.34 132.244 135.274C132.405 135.201 132.508 135.149 132.552 135.12L132.75 135.725ZM133.684 136V130.269H134.432V136H133.684ZM133.684 129.07V127.97H134.432V129.07H133.684ZM137.521 136.11C137.25 136.11 136.997 136.066 136.762 135.978C136.535 135.883 136.333 135.754 136.157 135.593C135.988 135.432 135.856 135.245 135.761 135.032C135.666 134.812 135.618 134.577 135.618 134.328C135.618 134.079 135.677 133.848 135.794 133.635C135.911 133.422 136.076 133.239 136.289 133.085C136.502 132.931 136.755 132.814 137.048 132.733C137.341 132.645 137.664 132.601 138.016 132.601C138.309 132.601 138.606 132.627 138.907 132.678C139.208 132.729 139.475 132.803 139.71 132.898V132.381C139.71 131.875 139.567 131.475 139.281 131.182C138.995 130.881 138.599 130.731 138.093 130.731C137.8 130.731 137.499 130.79 137.191 130.907C136.883 131.024 136.571 131.193 136.256 131.413L135.992 130.918C136.733 130.419 137.451 130.17 138.148 130.17C138.867 130.17 139.431 130.372 139.842 130.775C140.253 131.178 140.458 131.736 140.458 132.447V135.032C140.458 135.237 140.55 135.34 140.733 135.34V136C140.608 136.022 140.513 136.033 140.447 136.033C140.256 136.033 140.106 135.985 139.996 135.89C139.893 135.795 139.838 135.663 139.831 135.494L139.809 135.043C139.545 135.388 139.211 135.652 138.808 135.835C138.412 136.018 137.983 136.11 137.521 136.11ZM137.697 135.538C138.086 135.538 138.441 135.465 138.764 135.318C139.094 135.171 139.343 134.977 139.512 134.735C139.578 134.669 139.626 134.599 139.655 134.526C139.692 134.445 139.71 134.372 139.71 134.306V133.371C139.461 133.276 139.2 133.202 138.929 133.151C138.665 133.1 138.394 133.074 138.115 133.074C137.587 133.074 137.158 133.184 136.828 133.404C136.498 133.624 136.333 133.914 136.333 134.273C136.333 134.449 136.366 134.614 136.432 134.768C136.505 134.922 136.601 135.058 136.718 135.175C136.843 135.285 136.989 135.373 137.158 135.439C137.327 135.505 137.506 135.538 137.697 135.538ZM142.107 127.97H142.855V134.702C142.855 134.915 142.914 135.083 143.031 135.208C143.148 135.325 143.313 135.384 143.526 135.384C143.607 135.384 143.702 135.373 143.812 135.351C143.922 135.329 144.025 135.3 144.12 135.263L144.252 135.868C144.113 135.927 143.94 135.974 143.735 136.011C143.537 136.048 143.365 136.066 143.218 136.066C142.873 136.066 142.602 135.971 142.404 135.78C142.206 135.582 142.107 135.307 142.107 134.955V127.97ZM146.974 136.11C146.527 136.11 146.09 136.037 145.665 135.89C145.24 135.743 144.873 135.531 144.565 135.252L144.906 134.746C145.229 135.01 145.555 135.208 145.885 135.34C146.222 135.472 146.582 135.538 146.963 135.538C147.425 135.538 147.792 135.446 148.063 135.263C148.342 135.072 148.481 134.805 148.481 134.46C148.481 134.299 148.444 134.167 148.371 134.064C148.298 133.954 148.188 133.859 148.041 133.778C147.902 133.697 147.722 133.628 147.502 133.569C147.289 133.503 147.04 133.437 146.754 133.371C146.424 133.29 146.138 133.21 145.896 133.129C145.654 133.048 145.452 132.957 145.291 132.854C145.137 132.751 145.02 132.627 144.939 132.48C144.866 132.326 144.829 132.135 144.829 131.908C144.829 131.622 144.884 131.369 144.994 131.149C145.111 130.929 145.265 130.749 145.456 130.61C145.654 130.463 145.881 130.353 146.138 130.28C146.402 130.207 146.681 130.17 146.974 130.17C147.414 130.17 147.814 130.243 148.173 130.39C148.532 130.529 148.822 130.716 149.042 130.951L148.679 131.391C148.466 131.171 148.206 131.006 147.898 130.896C147.597 130.786 147.282 130.731 146.952 130.731C146.754 130.731 146.571 130.753 146.402 130.797C146.233 130.834 146.083 130.896 145.951 130.984C145.826 131.072 145.727 131.186 145.654 131.325C145.581 131.457 145.544 131.615 145.544 131.798C145.544 131.952 145.57 132.077 145.621 132.172C145.672 132.267 145.757 132.352 145.874 132.425C145.991 132.491 146.138 132.553 146.314 132.612C146.497 132.663 146.717 132.718 146.974 132.777C147.341 132.865 147.663 132.953 147.942 133.041C148.221 133.129 148.452 133.232 148.635 133.349C148.826 133.466 148.969 133.609 149.064 133.778C149.159 133.947 149.207 134.152 149.207 134.394C149.207 134.922 149.005 135.34 148.602 135.648C148.199 135.956 147.656 136.11 146.974 136.11Z" fill="black"/>
</svg>
